<svg width="290" height="48" viewBox="0 0 290 48" xmlns="http://www.w3.org/2000/svg" role="img" aria-label="Prosperity Pathways AP Foundation">
  <g transform="translate(4, 2)">
    <rect x="11" y="34" width="6" height="9" rx="1.5" fill="#1B3A5C"></rect>
    <rect x="6" y="37" width="16" height="4" rx="1.5" fill="#1B3A5C"></rect>
    <path d="M14,34 C14,34 6,27 7.5,17 C9,8 14,4 14,4 C14,4 15.5,8 14,15 C16.5,10 18,3 16.5,0 C21,5 19,15 15,19 C18,15 18.5,9 16.5,5 C21,11 17,24 14,34Z" fill="#B8860B"></path>
  </g>
  <line x1="34" y1="6" x2="34" y2="42" stroke="#E5E4DF" stroke-width="1"></line>
  <text x="46" y="22" style="font-family:&#39;Merriweather&#39;,serif;font-weight:700;font-size:16px;fill:#1B3A5C">Prosperity Pathways</text>
  <text x="46" y="40" style="font-family:&#39;Merriweather&#39;,serif;font-weight:300;font-size:14px;fill:#1B3A5C">AP Foundation</text>
</svg>