<svg width="240" height="150" viewBox="0 0 240 150" xmlns="http://www.w3.org/2000/svg" role="img" aria-label="Prosperity Pathways AP Foundation">
  <g transform="translate(95, 4)">
    <ellipse cx="25" cy="57" rx="9" ry="3" fill="#FFFFFF" opacity="0.08"></ellipse>
    <rect x="21" y="49" width="8" height="12" rx="2" fill="#FFFFFF" opacity="0.9"></rect>
    <rect x="14" y="52" width="22" height="5" rx="2" fill="#FFFFFF" opacity="0.7"></rect>
    <path d="M25,49 C25,49 14,39 16,25 C18,14 25,8 25,8 C25,8 27,14 25,23 C29,16 31,6 29,0 C36,9 34,22 28,28 C32,22 33,13 30,8 C37,17 31,33 25,49Z" fill="#B8860B"></path>
    <path d="M25,46 C25,46 19,37 20,28 C21,22 25,18 25,18 C25,18 26,24 25,30 C27,23 28,16 27,11 C31,19 28,33 25,46Z" fill="#E8C860" opacity="0.6"></path>
  </g>
  <text x="120" y="92" text-anchor="middle" style="font-family:&#39;Merriweather&#39;,serif;font-weight:700;font-size:19px;fill:#FFFFFF;letter-spacing:0.01em">Prosperity Pathways</text>
  <text x="120" y="116" text-anchor="middle" style="font-family:&#39;Merriweather&#39;,serif;font-weight:300;font-size:19px;fill:#FFFFFF;letter-spacing:0.01em">AP Foundation</text>
  <line x1="40" y1="130" x2="200" y2="130" stroke="#B8860B" stroke-width="0.75"></line>
  <text x="120" y="146" text-anchor="middle" style="font-family:&#39;Source Sans 3&#39;,sans-serif;font-weight:400;font-size:9px;fill:#B8860B;letter-spacing:0.22em">LIGHTING THE WAY FORWARD</text>
</svg>